<svg width="40" height="42" viewBox="0 0 40 42" fill="none" xmlns="http://www.w3.org/2000/svg">
<path fill-rule="evenodd" clip-rule="evenodd" d="M20 42C31.0457 42 40 32.598 40 21C40 9.40203 31.0457 0 20 0C8.95429 0 0 9.40203 0 21C0 32.598 8.95429 42 20 42ZM26.2393 9.78268C26.543 8.64995 25.4961 7.98014 24.54 8.69536L11.1931 18.6791C10.1562 19.4547 10.3193 21 11.4381 21H14.9527V20.9714H21.8025L16.2212 23.0392L13.7607 32.2173C13.457 33.3501 14.5038 34.0199 15.46 33.3046L28.8069 23.321C29.8438 22.5454 29.6806 21 28.5619 21H23.2321L26.2393 9.78268Z" fill="#34CAA5"/>
</svg>
